<svg xmlns="http://www.w3.org/2000/svg" width="57" height="52" fill="none"><mask id="mask0" maskUnits="userSpaceOnUse" x="0" y="0" width="57" height="52"><path d="M17.1 14.557l9.88-9.926c.95-.954 1.71-1.336 3.23 0 1.33 1.337 10.26 9.735 10.45 9.926.19.19.57.382.95.382s.76-.191.95-.382c.57-.573.57-1.527 0-2.1-.38-.381-9.12-8.59-10.45-9.925-2.28-2.1-4.94-2.1-7.03 0-6.65 6.49-10.07 9.925-10.07 9.925a1.503 1.503 0 000 2.1c.57.573 1.52.573 2.09 0zm38.19 1.527H1.71c-.76 0-1.52.573-1.52 1.527v8.398c0 .764.57 1.527 1.52 1.527h3.61L7.98 47.77c0 1.91 1.52 3.627 3.61 3.627h33.44c1.9 0 3.42-1.527 3.61-3.436l2.66-20.424v-.19h3.99c.76 0 1.52-.573 1.52-1.527v-8.4c-.19-.763-.76-1.336-1.52-1.336zm-9.5 31.304v.19c0 .382-.38.764-.76.764H11.59c-.38 0-.76-.382-.76-.954L8.17 27.346h40.28l-2.66 20.042zm7.98-22.905H3.23v-5.536h50.73v5.536h-.19z" fill="#fff"/></mask><g mask="url(#mask0)"><path d="M17.1 14.557l9.88-9.926c.95-.954 1.71-1.336 3.23 0 1.33 1.337 10.26 9.735 10.45 9.926.19.19.57.382.95.382s.76-.191.95-.382c.57-.573.57-1.527 0-2.1-.38-.381-9.12-8.59-10.45-9.925-2.28-2.1-4.94-2.1-7.03 0-6.65 6.49-10.07 9.925-10.07 9.925a1.503 1.503 0 000 2.1c.57.573 1.52.573 2.09 0zm38.19 1.527H1.71c-.76 0-1.52.573-1.52 1.527v8.398c0 .764.57 1.527 1.52 1.527h3.61L7.98 47.77c0 1.91 1.52 3.627 3.61 3.627h33.44c1.9 0 3.42-1.527 3.61-3.436l2.66-20.424v-.19h3.99c.76 0 1.52-.573 1.52-1.527v-8.4c-.19-.763-.76-1.336-1.52-1.336zm-9.5 31.304v.19c0 .382-.38.764-.76.764H11.59c-.38 0-.76-.382-.76-.954L8.17 27.346h40.28l-2.66 20.042zm7.98-22.905H3.23v-5.536h50.73v5.536h-.19z" fill="#fff"/><path fill="#FCB03C" d="M0-17.691h90v33.152H0z"/></g></svg>