<svg xmlns="http://www.w3.org/2000/svg" width="65" height="58" fill="none"><path d="M32.5 13.037c3.504 0 6.348-2.857 6.348-6.377 0-3.52-2.844-6.377-6.348-6.377S26.152 3.14 26.152 6.66c0 3.495 2.844 6.377 6.348 6.377zm0-10.152c2.057 0 3.758 1.684 3.758 3.775 0 2.066-1.676 3.775-3.758 3.775-2.057 0-3.758-1.683-3.758-3.775.026-2.091 1.701-3.775 3.758-3.775zM18.688 37.804c-.534.128-.94.612-.965 1.173L16.758 53.9c-.026.586-.508 1.02-1.092 1.02H8.303c-.584 0-1.067-.46-1.092-1.02l-.99-14.897a1.281 1.281 0 00-.914-1.148c-.28-.076-1.092-.331-1.22-.484-.1-.154-.151-.995-.177-1.429l-.889-15.79a243.42 243.42 0 004.444-1.402l3.63 3.418c.508.46 1.27.46 1.778 0l3.63-3.418c.356.102.788.255 1.27.408a1.27 1.27 0 001.625-.842 1.279 1.279 0 00-.837-1.632c-1.092-.357-1.98-.638-1.98-.638-.458-.153-.94-.025-1.296.28l-3.3 3.113-3.301-3.112a1.275 1.275 0 00-1.295-.28s-3.479 1.122-5.23 1.657c-1.093.332-1.753 1.199-1.753 2.347v.28l.864 15.56s0 .23.025.28c.152 2.296.482 3.138 2.387 3.878l.914 14.03c.127 1.938 1.752 3.468 3.681 3.468h7.364c1.93 0 3.554-1.53 3.681-3.469l.94-14.54a1.36 1.36 0 00.025-.841c-.178-.689-.914-1.071-1.6-.893z" fill="#fff"/><path d="M11.959 13.93c3.504 0 6.348-2.857 6.348-6.377 0-3.52-2.844-6.377-6.348-6.377S5.611 4.033 5.611 7.553c0 3.52 2.87 6.377 6.348 6.377zm0-10.127c2.057 0 3.758 1.684 3.758 3.775a3.758 3.758 0 01-3.758 3.775c-2.057 0-3.758-1.683-3.758-3.775 0-2.091 1.701-3.775 3.758-3.775z" fill="#FCB03C"/><path d="M42.326 17.653c-1.752-.535-5.23-1.658-5.23-1.658-.457-.153-.94-.025-1.295.28L32.5 19.389l-3.3-3.112a1.274 1.274 0 00-1.296-.28s-3.478 1.122-5.23 1.657c-1.117.332-1.752 1.2-1.752 2.347l.863 15.891.026.255c.152 2.296.482 3.163 2.386 3.877l.914 14.03c.127 1.938 1.752 3.469 3.682 3.469h7.389c1.93 0 3.554-1.53 3.681-3.47l.914-14.029c1.905-.74 2.235-1.607 2.387-3.877l.889-15.916V20c.025-1.173-.61-2.015-1.727-2.347zM40.6 35.687l-.026.255c-.025.408-.076 1.225-.177 1.378-.127.153-.965.408-1.245.484a1.286 1.286 0 00-.914 1.174l-.965 14.896c-.025.587-.507 1.02-1.091 1.02h-7.389c-.584 0-1.041-.459-1.092-1.02l-.965-14.896c-.025-.536-.406-.995-.914-1.174-.279-.076-1.091-.331-1.218-.484-.102-.153-.153-.995-.178-1.378l-.889-15.789v-.076a247.76 247.76 0 004.444-1.403l3.63 3.418a1.32 1.32 0 001.778 0l3.63-3.393c1.092.357 3.174 1.02 4.444 1.403L40.6 35.687zm22.268-18.034c-1.752-.535-5.23-1.658-5.23-1.658-.458-.153-.94-.025-1.296.28l-3.3 3.113-3.301-3.112a1.274 1.274 0 00-1.295-.28s-.889.28-1.98.637c-.686.23-1.067.944-.839 1.633.229.688.94 1.07 1.625.841.483-.153.914-.306 1.27-.408l3.63 3.418c.509.46 1.27.46 1.778 0l3.631-3.418c1.092.357 3.148.995 4.443 1.403l-.863 15.585-.025.255c-.026.408-.076 1.225-.178 1.378-.127.153-.965.408-1.244.484a1.286 1.286 0 00-.914 1.174l-.965 14.896a1.105 1.105 0 01-1.092 1.02h-7.389c-.558 0-1.04-.459-1.091-1.02l-.99-14.896c-.026-.536-.458-.995-.965-1.174-.686-.23-1.371.153-1.6.842a1.309 1.309 0 000 .765l.965 14.642c.127 1.938 1.726 3.469 3.681 3.469h7.39c1.929 0 3.554-1.53 3.68-3.47l.915-14.029c1.904-.74 2.234-1.581 2.387-3.851 0-.102.025-.332.025-.332l.863-15.636v-.23c0-1.122-.634-1.99-1.726-2.32z" fill="#fff"/><path d="M53.041 13.93c3.504 0 6.348-2.857 6.348-6.377 0-3.52-2.844-6.377-6.348-6.377s-6.348 2.857-6.348 6.377c0 3.52 2.844 6.377 6.348 6.377zm0-10.127c2.057 0 3.758 1.684 3.758 3.775a3.758 3.758 0 01-3.758 3.775c-2.057 0-3.758-1.683-3.758-3.775a3.758 3.758 0 013.758-3.775z" fill="#FCB03C"/></svg>