<svg xmlns="http://www.w3.org/2000/svg" width="67" height="62" fill="none"><path d="M25.439 28.17c.236-.264.393-.606.366-.947l-.026-1.026v-.026c0-.605-.104-3.707-.419-5.706a4.427 4.427 0 00-2.407-3.233c-1.152-.579-2.905-1.262-4.319-1.762a7.97 7.97 0 00.55-1.052 3.784 3.784 0 001.806-1.866 3.978 3.978 0 00.262-3.156 2.733 2.733 0 00-.445-.972 7.306 7.306 0 00-1.492-5.101C17.9 1.509 15.755.457 13.348.404h-.55c-2.355.053-4.502 1.13-5.915 2.919-1.073 1.393-1.596 3.234-1.44 5.074-.209.29-.34.631-.444.973-.131.394-.21.841-.21 1.262 0 .657.157 1.315.42 1.814a3.792 3.792 0 001.831 1.946c.157.368.34.736.55 1.052-1.466.525-3.193 1.21-4.319 1.761A4.492 4.492 0 00.864 20.44c-.34 2.025-.42 5.127-.445 5.732l-.026 1.025c0 .368.13.71.366.947.236.263.576.394.942.394h22.744c.418.027.758-.105.994-.368zM3.114 25.907c.027-.92.131-3.418.393-4.995a1.86 1.86 0 01.968-1.315c1.518-.763 4.45-1.814 5.654-2.235.523-.184.89-.684.89-1.262v-.237a1.32 1.32 0 00-.446-.999c-.55-.473-.942-1.13-1.151-1.867a1.346 1.346 0 00-.916-.92c-.367-.105-.68-.368-.89-.815a1.54 1.54 0 01-.157-.684c0-.157.026-.289.078-.447a.238.238 0 00.027-.13c.026-.106.078-.211.157-.264.34-.315.497-.762.418-1.236a4.572 4.572 0 01.89-3.654c.916-1.183 2.33-1.867 3.848-1.92h.47c1.571.027 2.984.737 3.9 1.92a4.673 4.673 0 01.89 3.654c-.078.447.079.92.419 1.236.078.079.13.158.157.263 0 .053.026.105.052.158.053.131.079.29.079.42 0 .237-.053.474-.21.763a1.298 1.298 0 01-.837.736 1.346 1.346 0 00-.916.92 3.804 3.804 0 01-1.178 1.867 1.32 1.32 0 00-.445 1v.236c0 .552.367 1.078.89 1.262.916.316 4.057 1.42 5.653 2.235.497.263.864.736.969 1.315.235 1.314.34 3.444.392 4.995H3.114zm63.441.29s0-.026 0 0c-.026-.63-.105-3.733-.445-5.732a4.427 4.427 0 00-2.408-3.233c-1.151-.579-2.905-1.262-4.318-1.762.21-.342.392-.684.55-1.052a3.784 3.784 0 001.805-1.867 3.977 3.977 0 00.262-3.155 2.733 2.733 0 00-.445-.973 7.306 7.306 0 00-1.492-5.1C58.651 1.509 56.505.457 54.097.404h-.55c-2.355.053-4.5 1.13-5.914 2.919-1.126 1.446-1.649 3.286-1.492 5.127-.21.289-.34.605-.445.973-.13.394-.21.841-.21 1.262 0 .657.158 1.314.42 1.814a3.793 3.793 0 001.831 1.945c.157.369.34.737.55 1.052-1.465.526-3.193 1.21-4.318 1.762a4.492 4.492 0 00-2.408 3.234c-.34 2.024-.419 5.127-.445 5.732l-.026 1.025c0 .368.13.71.366.947.236.262.576.394.942.394h22.744c.366 0 .68-.132.942-.395.236-.262.392-.604.366-.946l.105-1.052zm-22.717-.289c.026-.92.13-3.392.392-4.996a1.86 1.86 0 01.969-1.314c1.518-.763 4.449-1.814 5.653-2.235.523-.184.89-.684.89-1.262v-.237a1.32 1.32 0 00-.445-.999 3.649 3.649 0 01-1.152-1.867 1.346 1.346 0 00-.916-.92c-.366-.105-.68-.368-.89-.815a1.541 1.541 0 01-.157-.684c0-.157.027-.289.079-.447.026-.052.026-.078.052-.13a.545.545 0 01.157-.264c.34-.315.498-.762.42-1.236a4.572 4.572 0 01.889-3.654c.916-1.183 2.33-1.867 3.847-1.92h.471c1.57.027 2.984.737 3.9 1.92a4.673 4.673 0 01.89 3.654c-.079.447.078.92.419 1.236.078.079.13.158.157.263 0 .053.026.105.052.158.052.131.078.289.078.42 0 .237-.052.474-.209.763a1.298 1.298 0 01-.837.736 1.345 1.345 0 00-.916.92 3.806 3.806 0 01-1.178 1.867 1.32 1.32 0 00-.445 1v.236c0 .552.366 1.078.89 1.262.916.316 4.056 1.42 5.653 2.235.497.263.863.736.968 1.314.236 1.315.34 3.445.393 4.996H43.838zm1.911 27.66a4.492 4.492 0 00-2.408-3.234c-1.125-.552-2.853-1.236-4.318-1.762.209-.341.392-.683.55-1.051.81-.421 1.465-1.078 1.805-1.867a3.978 3.978 0 00.471-1.893c0-.447-.078-.868-.21-1.289a2.615 2.615 0 00-.444-.946 7.411 7.411 0 00-1.492-5.127c-1.413-1.814-3.56-2.866-5.967-2.919h-.55c-2.355.053-4.501 1.131-5.915 2.919-1.125 1.446-1.648 3.286-1.491 5.127-.21.29-.34.605-.445.973a4.24 4.24 0 00-.21 1.262c0 .657.157 1.314.42 1.814a3.793 3.793 0 001.831 1.946c.157.368.34.736.55 1.051-1.466.526-3.193 1.21-4.319 1.762-1.256.631-2.146 1.84-2.407 3.234-.34 2.025-.42 5.1-.445 5.732l-.026 1.025c0 .368.13.71.366.947.236.263.576.394.942.394h22.744c.366 0 .68-.131.942-.394.235-.263.392-.605.366-.947l-.026-1.052c.105-.578.026-3.68-.314-5.705zm-22.272 5.469c.026-.92.13-3.418.392-4.996a1.86 1.86 0 01.968-1.314c1.518-.763 4.45-1.815 5.654-2.235.523-.184.89-.684.89-1.262v-.237a1.32 1.32 0 00-.445-1 3.648 3.648 0 01-1.152-1.866 1.346 1.346 0 00-.916-.92c-.366-.105-.68-.368-.89-.815a1.54 1.54 0 01-.157-.684c0-.157.026-.289.079-.447.026-.052.026-.079.026-.131.026-.105.078-.21.157-.263.34-.316.497-.763.419-1.236a4.572 4.572 0 01.89-3.654c.915-1.184 2.329-1.867 3.847-1.92h.47c1.571.026 2.984.736 3.9 1.92a4.572 4.572 0 01.89 3.654c-.078.447.079.92.419 1.236.078.079.13.158.157.263 0 .052.026.105.052.158.053.131.079.289.079.42 0 .237-.053.474-.21.763a1.297 1.297 0 01-.837.736 1.346 1.346 0 00-.916.92 3.805 3.805 0 01-1.178 1.867 1.32 1.32 0 00-.445.999v.237c0 .552.367 1.078.89 1.262 1.178.42 4.135 1.472 5.653 2.235.524.263.864.736.969 1.314.235 1.315.34 3.445.392 4.996H23.477z" fill="#fff"/><path d="M56.164 31.955c-.706-.079-1.36.447-1.439 1.183-.55 5.522-3.167 10.544-7.354 14.12-.55.473-.629 1.314-.157 1.866.261.316.628.473.994.473.314 0 .602-.105.864-.315a23.79 23.79 0 008.27-15.88c.053-.737-.47-1.394-1.178-1.447zM12.3 33.138c-.078-.736-.732-1.262-1.439-1.183a1.306 1.306 0 00-1.177 1.446 23.842 23.842 0 008.27 15.88c.235.211.55.316.864.316.366 0 .732-.157.994-.473.471-.552.393-1.393-.157-1.867-4.187-3.575-6.805-8.597-7.354-14.119zm13.767-22.269c.157 0 .288-.027.445-.08 4.45-1.577 9.526-1.577 13.976 0a1.3 1.3 0 001.675-.814c.235-.684-.105-1.446-.812-1.683-5.025-1.788-10.73-1.788-15.729 0-.68.237-1.047 1-.811 1.683.21.552.733.894 1.256.894z" fill="#FCB03C"/></svg>