<svg xmlns="http://www.w3.org/2000/svg" width="186" height="35" fill="none"><path d="M10.728 17.308l-4.525-2.51L0 18.517v8.077h27.448v-7.099l-10.574-5.874-6.146 3.687z" fill="#FAAF40"/><path d="M13.459 0L0 8.07v6.888l6.203-3.719 4.525 2.514 6.146-3.687 10.574 5.874V7.77L13.458 0z" fill="#A6A8AB"/><path d="M40.677 26.334h-1.928V10.49h-4.925V8.63h11.783v1.861h-4.93v15.844zm18.335 0h-10.98V8.63h10.865v1.861H49.96v5.992h8.062v1.862H49.96v6.13h9.052v1.86zm15.505.002h-2.251l-4.857-7.483-4.813 7.483h-2.251l5.925-9.06-5.676-8.645h2.255l4.56 7.066 4.605-7.066h2.229l-5.654 8.646 5.928 9.059zm-1.742-.94h.006l-.726-1.11.72 1.11zm16.221.938h-1.95v-7.99h-8.39v7.99h-1.928V8.63h1.928v7.876h8.39V8.628h1.95v17.706zm10.607.253c-2.194 0-4.013-.87-5.407-2.59-1.369-1.69-2.06-3.853-2.06-6.424v-.16c0-2.57.691-4.735 2.06-6.433 1.394-1.727 3.22-2.603 5.433-2.603 2.196 0 4.016.873 5.407 2.59 1.368 1.692 2.066 3.853 2.066 6.425v.16c0 2.57-.695 4.735-2.063 6.433-1.394 1.726-3.22 2.602-5.436 2.602zm0-16.374c-1.608 0-2.897.652-3.933 1.995-1.049 1.36-1.583 3.104-1.583 5.184v.16c0 2.065.54 3.808 1.605 5.183 1.052 1.356 2.338 2.018 3.937 2.018 1.596 0 2.881-.652 3.923-1.995 1.058-1.36 1.593-3.102 1.593-5.183v-.16c0-2.066-.538-3.808-1.605-5.183-1.053-1.357-2.339-2.02-3.937-2.02zm24.311 16.123h-2.065l-5.504-14.59-5.5 14.59h-2.018l6.756-17.82h1.571l6.76 17.82zm15.151-.002h-1.928v-14.06l-9.274 14.06h-1.576V8.63h1.932v13.827l9.11-13.827h1.736v17.706zm19.138 3.25h-1.884v-3.248h-12.992v3.248h-1.909v-5.11h1.596l5.963-15.958h1.689l5.967 15.959h1.57v5.11zm-13.152-5.11h9.497l-4.739-12.867-4.758 12.868zm26.508 1.86h-10.977V8.63h10.866v1.861h-8.938v5.992h8.062v1.862h-8.062v6.13h9.049v1.86zm4.862 0h-1.929V8.63h5.19c1.902 0 3.447.505 4.582 1.496 1.154 1.014 1.736 2.39 1.736 4.087 0 1.826-.617 3.252-1.832 4.285-1.196 1.014-2.769 1.529-4.672 1.529h-3.076v6.308h.001zm0-8.147h3.124c1.413 0 2.539-.358 3.354-1.062.805-.694 1.196-1.618 1.196-2.82 0-1.263-.38-2.168-1.163-2.817-.8-.662-1.91-.998-3.294-.998h-3.217v7.697zM13.99 34.44l13.458-8.07v-6.888l-6.2 3.719-4.524-2.514-6.15 3.687L0 18.5v8.17l13.99 7.77z" fill="#404041"/></svg>