<svg xmlns="http://www.w3.org/2000/svg" width="22" height="21" fill="none"><path d="M21.373 14.84l-4.813-1.97a1.077 1.077 0 00-.651-.05c-.217.051-.41.168-.552.334l-2.131 2.485c-3.345-1.505-6.037-4.075-7.614-7.268l2.604-2.034a.978.978 0 00.35-.527.94.94 0 00-.054-.621L6.45.595a1.012 1.012 0 00-.484-.488 1.083 1.083 0 00-.698-.082L.8 1.009c-.227.05-.43.172-.575.347A.957.957 0 000 1.967C0 12.49 8.933 21 19.938 21c.233 0 .46-.075.642-.214a.98.98 0 00.363-.549l1.032-4.266a.956.956 0 00-.088-.669 1.026 1.026 0 00-.514-.463z" fill="#FAAF40"/></svg>