<svg xmlns="http://www.w3.org/2000/svg" width="20" height="19" fill="none"><path d="M19.43 13.426l-4.375-1.781a.983.983 0 00-.592-.046.944.944 0 00-.502.302l-1.938 2.249c-3.04-1.362-5.488-3.687-6.921-6.576l2.367-1.84a.884.884 0 00.318-.477.847.847 0 00-.049-.563L5.863.538a.918.918 0 00-.439-.442.988.988 0 00-.635-.074L.727.912a.945.945 0 00-.523.314.863.863 0 00-.204.555C0 11.3 8.121 19 18.125 19a.97.97 0 00.584-.193.887.887 0 00.33-.497l.938-3.86a.86.86 0 00-.08-.605.93.93 0 00-.467-.419z" fill="#FAAF40"/></svg>