<svg xmlns="http://www.w3.org/2000/svg" width="237" height="237" fill="none"><path fill="#fff" d="M0 0h237v237H0z"/><path d="M140.125 131.25h-7.5v-5.625H142l-11.25-30-7.688 20.625.563 1.312L112 90l-15 35.625h13.125v5.625h-11.25c-1.125 0-1.875.75-1.875 1.875V135h45v-1.875c0-1.125-.75-1.875-1.875-1.875zm-23.063-24.375h-10.124l1.5-3.75h6.937l1.687 3.75zm.75 1.875l1.5 3.75h-14.624l1.5-3.75h11.624zm2.438 5.625l1.5 3.75h-19.5l1.5-3.75h16.5zm14.812-1.875h-8.437l1.5-3.75h5.625l1.312 3.75zm.563 1.875l1.5 3.75h-12.75l1.5-3.75h9.75zm-2.813-7.5H128.5l2.25-5.813 2.062 5.813zm-18.187-5.625h-5.25L112 95.062l2.625 6.188zm-14.813 22.5l1.5-3.75h21l1.5 3.75h-24zm14.063 7.5v-5.625H127L124.562 120h13.126l1.5 3.75H126.25l.75 1.875h1.875v5.625h-15z" fill="#3A3A3C"/><path fill="#FCB03C" d="M97 131h45v5H97z"/></svg>