<svg xmlns="http://www.w3.org/2000/svg" width="237" height="237" fill="none"><path fill="#fff" d="M0 0h237v237H0z"/><path d="M112.275 138.261H148v-3.152h-3.26v-22.784a1.578 1.578 0 00-2.583-1.215l-12.812 10.61-.051-9.404a1.575 1.575 0 00-2.516-1.256l-12.924 9.63v-17.028c0-.87-.706-1.576-1.577-1.576h-7.74c-.798 0-1.472.599-1.565 1.393l-3.707 31.63h-3.22v3.152h16.23zm13.885-22.809l.051 9.612c.004.609.359 1.162.909 1.42a1.581 1.581 0 001.673-.213l12.795-10.594v19.432h-27.733v-10.487l12.305-9.17zm-20.219-10.214h4.761v18.579l-.002.016v11.277h-8.259l3.5-29.872z" fill="#3A3A3C"/><path d="M107.374 100.86a1.578 1.578 0 002.002-.98c1.38-4.028 5.335-4.63 8.301-3.925 5.165 1.234 9.39 1.646 12.888-5.047a1.577 1.577 0 00-2.794-1.46c-2.291 4.384-4.151 4.686-9.363 3.44-4.59-1.096-10.083.328-12.015 5.969-.281.824.157 1.72.981 2.003z" fill="#FCB03C"/></svg>