<svg xmlns="http://www.w3.org/2000/svg" width="237" height="237" fill="none"><path fill="#fff" d="M0 0h237v237H0z"/><path d="M143.979 130.16a26.465 26.465 0 00-4.608-12.385 25.606 25.606 0 00-9.956-8.464 11.679 11.679 0 00-4.115-6.006 11.22 11.22 0 00-6.8-2.305 11.22 11.22 0 00-6.8 2.305 11.686 11.686 0 00-4.116 6.006 25.61 25.61 0 00-9.955 8.464 26.462 26.462 0 00-4.608 12.385H90V136h57v-5.84h-3.021zM118.5 106.8c1.127 0 2.229.342 3.167.984a5.813 5.813 0 012.099 2.621 5.967 5.967 0 01.324 3.374 5.874 5.874 0 01-1.559 2.99 5.667 5.667 0 01-2.919 1.599 5.575 5.575 0 01-3.293-.333 5.724 5.724 0 01-2.558-2.151 5.935 5.935 0 01-.961-3.244 5.92 5.92 0 011.669-4.13 5.633 5.633 0 014.031-1.71zm-2.85 23.36v-6.22a10.87 10.87 0 005.7 0v6.22h-5.7z" fill="#3A3A3C"/><circle cx="118.5" cy="112.5" r="6.5" fill="#FCB03C"/></svg>