<svg xmlns="http://www.w3.org/2000/svg" width="237" height="237" fill="none"><path fill="#fff" d="M0 0h237v237H0z"/><path d="M137.697 128.17v-5.167h-7.451l-6.442-12.918a10.339 10.339 0 003.545-7.751c0-2.74-1.091-5.37-3.031-7.307a10.357 10.357 0 00-14.636 0 10.33 10.33 0 00-3.031 7.307 10.322 10.322 0 003.545 7.751l-6.442 12.918h-7.451v5.167h4.863L94 142.508l4.631 2.3 8.331-16.638h20.076l8.331 16.664 4.631-2.3-7.166-14.364h4.863zm-28.148-5.167l5.174-10.567c1.424.307 2.897.307 4.321 0l5.174 10.567h-14.669z" fill="#3A3A3C"/><circle cx="117" cy="102.347" r="10.347" fill="#FCB03C"/></svg>