<?xml version="1.0" encoding="UTF-8"?> <svg xmlns="http://www.w3.org/2000/svg" width="57" height="52" viewBox="0 0 57 52" fill="none"> <mask id="mask0" maskUnits="userSpaceOnUse" x="0" y="0" width="57" height="52"> <path d="M17.0995 14.5569C17.0995 14.5569 20.5195 11.1212 26.9795 4.63139C27.9294 3.67701 28.6894 3.29526 30.2094 4.63139C31.5394 5.96752 40.4694 14.3661 40.6595 14.5569C40.8494 14.7478 41.2295 14.9387 41.6094 14.9387C41.9894 14.9387 42.3694 14.7478 42.5594 14.5569C43.1294 13.9843 43.1294 13.0299 42.5594 12.4573C42.1794 12.0756 33.4394 3.86789 32.1094 2.53176C29.8294 0.432122 27.1695 0.432122 25.0795 2.53176C18.4295 9.02154 15.0095 12.4573 15.0095 12.4573C14.4395 13.0299 14.4395 13.9843 15.0095 14.5569C15.5795 15.1296 16.5295 15.1296 17.0995 14.5569ZM55.2894 16.0839H1.70945C0.949453 16.0839 0.189453 16.6566 0.189453 17.611V26.0095C0.189453 26.773 0.759453 27.5365 1.70945 27.5365H5.31945L7.97945 47.7694C7.97945 49.6781 9.49945 51.396 11.5895 51.396H45.0294C46.9295 51.396 48.4494 49.869 48.6395 47.9602L51.2994 27.5365V27.3456H55.2894C56.0494 27.3456 56.8094 26.773 56.8094 25.8186V17.4201C56.6194 16.6566 56.0494 16.0839 55.2894 16.0839ZM45.7895 47.3876V47.5785C45.7895 47.9602 45.4095 48.342 45.0294 48.342H11.5895C11.2095 48.342 10.8295 47.9602 10.8295 47.3876L8.16945 27.3456H48.4494L45.7895 47.3876ZM53.7694 24.4825H3.22945V18.9471H53.9594V24.4825H53.7694Z" fill="white"></path> </mask> <g mask="url(#mask0)"> <path d="M17.0995 14.5569C17.0995 14.5569 20.5195 11.1212 26.9795 4.63139C27.9294 3.67701 28.6894 3.29526 30.2094 4.63139C31.5394 5.96752 40.4694 14.3661 40.6595 14.5569C40.8494 14.7478 41.2295 14.9387 41.6094 14.9387C41.9894 14.9387 42.3694 14.7478 42.5594 14.5569C43.1294 13.9843 43.1294 13.0299 42.5594 12.4573C42.1794 12.0756 33.4394 3.86789 32.1094 2.53176C29.8294 0.432122 27.1695 0.432122 25.0795 2.53176C18.4295 9.02154 15.0095 12.4573 15.0095 12.4573C14.4395 13.0299 14.4395 13.9843 15.0095 14.5569C15.5795 15.1296 16.5295 15.1296 17.0995 14.5569ZM55.2894 16.0839H1.70945C0.949453 16.0839 0.189453 16.6566 0.189453 17.611V26.0095C0.189453 26.773 0.759453 27.5365 1.70945 27.5365H5.31945L7.97945 47.7694C7.97945 49.6781 9.49945 51.396 11.5895 51.396H45.0294C46.9295 51.396 48.4494 49.869 48.6395 47.9602L51.2994 27.5365V27.3456H55.2894C56.0494 27.3456 56.8094 26.773 56.8094 25.8186V17.4201C56.6194 16.6566 56.0494 16.0839 55.2894 16.0839ZM45.7895 47.3876V47.5785C45.7895 47.9602 45.4095 48.342 45.0294 48.342H11.5895C11.2095 48.342 10.8295 47.9602 10.8295 47.3876L8.16945 27.3456H48.4494L45.7895 47.3876ZM53.7694 24.4825H3.22945V18.9471H53.9594V24.4825H53.7694Z" fill="white"></path> <rect y="-17.6914" width="90" height="33.1521" fill="#FCB03C"></rect> </g> </svg> 