<?xml version="1.0" encoding="UTF-8"?> <svg xmlns="http://www.w3.org/2000/svg" width="67" height="62" viewBox="0 0 67 62" fill="none"> <path d="M25.439 28.1693C25.6746 27.9063 25.8316 27.5645 25.8054 27.2227L25.7793 26.1973V26.171C25.7793 25.5663 25.6746 22.4638 25.3605 20.4655C25.125 19.072 24.2351 17.8626 22.9527 17.2315C21.8012 16.6531 20.0476 15.9695 18.6344 15.4699C18.8437 15.1281 19.0269 14.7863 19.184 14.4182C19.9953 14.0238 20.6496 13.3402 20.9898 12.5515C21.3039 11.973 21.4609 11.3157 21.4609 10.6584C21.4609 10.2377 21.3824 9.79074 21.2515 9.39636C21.173 9.05455 21.016 8.71275 20.8066 8.42353C20.9637 6.60934 20.4402 4.76886 19.3148 3.32277C17.9015 1.50858 15.7555 0.456882 13.3476 0.404297H12.798C10.4426 0.456882 8.29648 1.53488 6.8832 3.32277C5.81015 4.71628 5.28671 6.55676 5.44375 8.39724C5.23437 8.68646 5.10351 9.02826 4.99882 9.37006C4.86796 9.76445 4.78945 10.2114 4.78945 10.6321C4.78945 11.2894 4.94648 11.9467 5.2082 12.4463C5.5746 13.314 6.2289 13.9976 7.04023 14.3919C7.19726 14.76 7.38046 15.1281 7.58984 15.4436C6.12421 15.9695 4.39687 16.6531 3.27148 17.2052C2.01523 17.8363 1.09922 19.0457 0.863671 20.4392C0.523437 22.4638 0.444922 25.5663 0.41875 26.171L0.392578 27.1964C0.392578 27.5645 0.523437 27.9063 0.758984 28.143C0.994531 28.4059 1.33476 28.5373 1.70117 28.5373H24.4445C24.8633 28.5636 25.2035 28.4322 25.439 28.1693ZM3.11445 25.9081C3.14062 24.9879 3.24531 22.4901 3.50703 20.9125C3.61172 20.3341 3.97812 19.8608 4.47539 19.5979C5.99335 18.8354 8.9246 17.7837 10.1285 17.363C10.6519 17.179 11.0183 16.6794 11.0183 16.101V15.8643C11.0183 15.4699 10.8613 15.1281 10.5734 14.8652C10.0238 14.3919 9.63124 13.7346 9.42187 12.9984C9.29101 12.5515 8.95077 12.2097 8.50585 12.0782C8.13945 11.973 7.82538 11.7101 7.61601 11.2631C7.51132 11.0528 7.45898 10.8162 7.45898 10.5795C7.45898 10.4218 7.48515 10.2903 7.53749 10.1325C7.56366 10.08 7.56367 10.0537 7.56367 10.0011C7.58984 9.89592 7.64218 9.79074 7.7207 9.73816C8.06093 9.42265 8.21796 8.97568 8.13945 8.50241C7.9039 7.21407 8.21796 5.87315 9.02929 4.84774C9.9453 3.66458 11.3586 2.98097 12.8766 2.92838H13.3476C14.918 2.95468 16.3312 3.66458 17.2473 4.84774C18.0324 5.87315 18.3726 7.21407 18.1371 8.50241C18.0586 8.94938 18.2156 9.42265 18.5558 9.73816C18.6344 9.81704 18.6867 9.89592 18.7129 10.0011C18.7129 10.0537 18.739 10.1063 18.7652 10.1588C18.8176 10.2903 18.8437 10.4481 18.8437 10.5795C18.8437 10.8162 18.7914 11.0528 18.6344 11.342C18.4773 11.7101 18.1633 11.973 17.7969 12.0782C17.3519 12.2097 17.0117 12.5515 16.8808 12.9984C16.6715 13.7346 16.2789 14.3657 15.7031 14.8652C15.4152 15.1281 15.2582 15.4699 15.2582 15.8643V16.101C15.2582 16.6531 15.6246 17.179 16.148 17.363C17.064 17.6785 20.2047 18.7828 21.8012 19.5979C22.2984 19.8608 22.6648 20.3341 22.7695 20.9125C23.0051 22.2271 23.1097 24.3568 23.1621 25.9081H3.11445Z" fill="white"></path> <path d="M66.5551 26.1972C66.5551 26.1972 66.5551 26.1709 66.5551 26.1972C66.5289 25.5662 66.4504 22.4637 66.1101 20.4655C65.8746 19.072 64.9847 17.8625 63.7023 17.2315C62.5508 16.6531 60.7972 15.9695 59.384 15.4699C59.5933 15.1281 59.7765 14.7863 59.9336 14.4182C60.7449 14.0238 61.3992 13.3402 61.7394 12.5514C62.0535 11.973 62.2105 11.3157 62.2105 10.6584C62.2105 10.2377 62.132 9.79071 62.0011 9.39633C61.9226 9.05452 61.7656 8.71272 61.5562 8.4235C61.7133 6.60932 61.1898 4.76885 60.0644 3.32276C58.6512 1.50858 56.5051 0.456882 54.0973 0.404297H53.5476C51.1922 0.456882 49.0461 1.53487 47.6328 3.32276C46.5074 4.76885 45.984 6.60932 46.141 8.4498C45.9316 8.73902 45.8008 9.05453 45.6961 9.42262C45.5652 9.81701 45.4867 10.264 45.4867 10.6847C45.4867 11.342 45.6437 11.9993 45.9055 12.4988C46.2719 13.3665 46.9262 14.0501 47.7375 14.4445C47.8945 14.8126 48.0777 15.1807 48.2871 15.4962C46.8215 16.022 45.0941 16.7056 43.9687 17.2578C42.7125 17.8888 41.7965 19.0983 41.5609 20.4918C41.2207 22.5163 41.1422 25.6188 41.116 26.2235L41.0898 27.2489C41.0898 27.617 41.2207 27.9588 41.4562 28.1955C41.6918 28.4584 42.032 28.5898 42.3984 28.5898H65.1418C65.5082 28.5898 65.8222 28.4584 66.084 28.1955C66.3195 27.9325 66.4765 27.5907 66.4504 27.2489L66.5551 26.1972ZM43.8379 25.908C43.8641 24.9878 43.9687 22.5163 44.2305 20.9124C44.3352 20.334 44.7016 19.8607 45.1988 19.5978C46.7168 18.8353 49.648 17.7836 50.8519 17.363C51.3754 17.1789 51.7418 16.6793 51.7418 16.1009V15.8643C51.7418 15.4699 51.5848 15.1281 51.2969 14.8652C50.7473 14.3919 50.3285 13.7346 50.1453 12.9984C50.0144 12.5514 49.6742 12.2096 49.2293 12.0782C48.8629 11.973 48.5488 11.7101 48.3394 11.2631C48.2348 11.0528 48.1824 10.8161 48.1824 10.5795C48.1824 10.4217 48.2086 10.2903 48.2609 10.1325C48.2871 10.0799 48.2871 10.0536 48.3133 10.0011C48.3394 9.89589 48.3918 9.81701 48.4703 9.73813C48.8105 9.42262 48.9676 8.97565 48.8891 8.50238C48.6535 7.21405 48.9676 5.87313 49.7789 4.84773C50.6949 3.66457 52.1082 2.98096 53.6262 2.92838H54.0973C55.6676 2.95467 57.0808 3.66457 57.9969 4.84773C58.782 5.87313 59.1222 7.21405 58.8867 8.50238C58.8082 8.94936 58.9652 9.42262 59.3055 9.73813C59.384 9.81701 59.4363 9.89589 59.4625 10.0011C59.4625 10.0536 59.4887 10.1062 59.5148 10.1588C59.5672 10.2903 59.5933 10.448 59.5933 10.5795C59.5933 10.8161 59.541 11.0528 59.384 11.342C59.2269 11.7101 58.9129 11.973 58.5465 12.0782C58.1015 12.2096 57.7613 12.5514 57.6305 12.9984C57.4211 13.7346 57.0285 14.3656 56.4527 14.8652C56.1648 15.1281 56.0078 15.4699 56.0078 15.8643V16.1009C56.0078 16.6531 56.3742 17.1789 56.8976 17.363C57.8137 17.6785 60.9543 18.7827 62.5508 19.5978C63.048 19.8607 63.4144 20.334 63.5191 20.9124C63.7547 22.2271 63.8594 24.3568 63.9117 25.908H43.8379Z" fill="white"></path> <path d="M45.7488 53.5679C45.5133 52.1744 44.5973 50.965 43.341 50.334C42.2156 49.7818 40.4883 49.0982 39.0227 48.5724C39.232 48.2306 39.4152 47.8888 39.5723 47.5207C40.3836 47.1 41.0379 46.4427 41.3781 45.6539C41.6922 45.0755 41.8492 44.4181 41.8492 43.7608C41.8492 43.3139 41.7707 42.8932 41.6398 42.4725C41.5613 42.1307 41.4043 41.8152 41.1949 41.526C41.352 39.7118 40.8285 37.8713 39.7031 36.3989C38.2898 34.5848 36.1438 33.5331 33.7359 33.4805H33.1863C30.8309 33.5331 28.6848 34.611 27.2715 36.3989C26.1461 37.845 25.6227 39.6855 25.7797 41.526C25.5703 41.8152 25.4395 42.1307 25.3348 42.4988C25.2039 42.9195 25.1254 43.3402 25.1254 43.7608C25.1254 44.4181 25.2824 45.0755 25.5441 45.575C25.9105 46.4427 26.5648 47.1263 27.3762 47.5207C27.5332 47.8888 27.7164 48.2568 27.9258 48.5724C26.4602 49.0982 24.7328 49.7818 23.6074 50.334C22.3512 50.965 21.4613 52.1744 21.1996 53.5679C20.8594 55.5925 20.7809 58.6687 20.7547 59.2997L20.7285 60.3251C20.7285 60.6932 20.8594 61.035 21.0949 61.2716C21.3305 61.5346 21.6707 61.666 22.0371 61.666H44.7805C45.1469 61.666 45.4609 61.5346 45.7227 61.2716C45.9582 61.0087 46.1152 60.6669 46.0891 60.3251L46.0629 59.2734C46.1676 58.695 46.0891 55.5925 45.7488 53.5679ZM23.4766 59.0368C23.5027 58.1165 23.6074 55.6187 23.8691 54.0412C23.9738 53.4628 24.3402 52.9895 24.8375 52.7266C26.3555 51.9641 29.2867 50.9124 30.4906 50.4917C31.0141 50.3077 31.3805 49.8081 31.3805 49.2297V48.993C31.3805 48.5986 31.2234 48.2568 30.9355 47.9939C30.3859 47.5207 29.9672 46.8633 29.784 46.1272C29.6531 45.6802 29.3129 45.3384 28.868 45.2069C28.5016 45.1017 28.1875 44.8388 27.9781 44.3919C27.8734 44.1815 27.8211 43.9449 27.8211 43.7082C27.8211 43.5505 27.8473 43.419 27.8996 43.2613C27.9258 43.2087 27.9258 43.1824 27.9258 43.1298C27.952 43.0246 28.0043 42.9195 28.0828 42.8669C28.423 42.5514 28.5801 42.1044 28.5016 41.6311C28.266 40.3428 28.5801 39.0019 29.3914 37.9765C30.3074 36.7933 31.7207 36.1097 33.2387 36.0571H33.7098C35.2801 36.0834 36.6934 36.7933 37.6094 37.9765C38.4207 39.0019 38.7348 40.3428 38.4992 41.6311C38.4207 42.0781 38.5777 42.5514 38.918 42.8669C38.9965 42.9458 39.0488 43.0246 39.075 43.1298C39.075 43.1824 39.1012 43.235 39.1273 43.2876C39.1797 43.419 39.2059 43.5768 39.2059 43.7082C39.2059 43.9449 39.1535 44.1815 38.9965 44.4707C38.8395 44.8388 38.5254 45.1017 38.159 45.2069C37.7141 45.3384 37.3738 45.6802 37.243 46.1272C37.0336 46.8633 36.641 47.4944 36.0652 47.9939C35.7773 48.2568 35.6203 48.5986 35.6203 48.993V49.2297C35.6203 49.7818 35.9867 50.3077 36.5102 50.4917C37.6879 50.9124 40.6453 51.9641 42.1633 52.7266C42.6867 52.9895 43.027 53.4628 43.1316 54.0412C43.3672 55.3558 43.4719 57.4855 43.5242 59.0368H23.4766Z" fill="white"></path> <path d="M56.1644 31.9551C55.4578 31.8762 54.8035 32.4021 54.725 33.1383C54.1754 38.6597 51.5582 43.6816 47.3707 47.2574C46.821 47.7306 46.7425 48.572 47.2136 49.1241C47.4753 49.4397 47.8418 49.5974 48.2082 49.5974C48.5222 49.5974 48.8101 49.4922 49.0718 49.2819C53.8089 45.2328 56.7402 39.6062 57.3422 33.4012C57.3945 32.665 56.8711 32.0077 56.1644 31.9551Z" fill="#FCB03C"></path> <path d="M12.3008 33.1383C12.2223 32.4021 11.568 31.8762 10.8613 31.9551C10.1285 32.034 9.60506 32.665 9.68357 33.4012C10.2855 39.6062 13.243 45.2591 17.9539 49.2819C18.1895 49.4922 18.5035 49.5974 18.8176 49.5974C19.184 49.5974 19.5504 49.4397 19.8121 49.1241C20.2832 48.572 20.2047 47.7306 19.6551 47.2574C15.4676 43.6816 12.8504 38.6597 12.3008 33.1383Z" fill="#FCB03C"></path> <path d="M26.067 10.8688C26.224 10.8688 26.3548 10.8425 26.5119 10.7899C30.9611 9.21234 36.0384 9.21234 40.4876 10.7899C41.1681 11.0265 41.9271 10.6847 42.1626 9.97482C42.3982 9.29122 42.058 8.52873 41.3513 8.2921C36.3263 6.5042 30.6209 6.5042 25.622 8.2921C24.9416 8.52873 24.5752 9.29122 24.8107 9.97482C25.0201 10.527 25.5435 10.8688 26.067 10.8688Z" fill="#FCB03C"></path> </svg> 