<?xml version="1.0" encoding="UTF-8"?> <svg xmlns="http://www.w3.org/2000/svg" width="65" height="58" viewBox="0 0 65 58" fill="none"> <path d="M32.5 13.0371C36.0039 13.0371 38.8477 10.1802 38.8477 6.66016C38.8477 3.14008 36.0039 0.283203 32.5 0.283203C28.9961 0.283203 26.1523 3.14008 26.1523 6.66016C26.1523 10.1547 28.9961 13.0371 32.5 13.0371ZM32.5 2.885C34.5566 2.885 36.2578 4.56852 36.2578 6.66016C36.2578 8.72629 34.582 10.4353 32.5 10.4353C30.4434 10.4353 28.7422 8.7518 28.7422 6.66016C28.7676 4.56852 30.4434 2.885 32.5 2.885Z" fill="white"></path> <path d="M18.6875 37.8042C18.1543 37.9317 17.7481 38.4164 17.7227 38.9775L16.7578 53.8995C16.7324 54.4862 16.25 54.9198 15.666 54.9198H8.30274C7.71876 54.9198 7.23634 54.4607 7.21095 53.8995L6.22071 39.003C6.19532 38.4674 5.81446 38.0082 5.30665 37.8552C5.02735 37.7787 4.21485 37.5236 4.08789 37.3706C3.98633 37.2175 3.93555 36.3758 3.91016 35.9421L3.02149 20.1529C4.29102 19.7703 6.37305 19.1071 7.46485 18.75L11.0957 22.168C11.6035 22.6271 12.3652 22.6271 12.8731 22.168L16.5039 18.75C16.8594 18.852 17.291 19.005 17.7735 19.1581C18.459 19.3876 19.1953 19.005 19.3985 18.3163C19.627 17.6276 19.2461 16.8879 18.5606 16.6838C17.4688 16.3267 16.5801 16.0461 16.5801 16.0461C16.1231 15.8931 15.6406 16.0206 15.2852 16.3267L11.9844 19.4387L8.6836 16.3267C8.32814 15.9951 7.84571 15.8931 7.38868 16.0461C7.38868 16.0461 3.91016 17.1685 2.15821 17.7041C1.06641 18.0357 0.40625 18.903 0.40625 20.0508C0.40625 20.1274 0.40625 20.3314 0.40625 20.3314L1.26953 35.8911C1.26953 35.8911 1.26953 36.1207 1.29492 36.1717C1.44727 38.4674 1.77735 39.3091 3.68164 40.0489L4.59571 54.0781C4.72266 56.0167 6.34766 57.5471 8.27735 57.5471H15.6406C17.5703 57.5471 19.1953 56.0167 19.3223 54.0781L20.2617 39.5387C20.3633 39.2836 20.3633 38.9775 20.2871 38.6969C20.1094 38.0082 19.3731 37.6256 18.6875 37.8042Z" fill="white"></path> <path d="M11.959 13.9296C15.4629 13.9296 18.3066 11.0727 18.3066 7.55267C18.3066 4.03263 15.4629 1.17578 11.959 1.17578C8.45508 1.17578 5.61133 4.03263 5.61133 7.55267C5.61133 11.0727 8.48047 13.9296 11.959 13.9296ZM11.959 3.80306C14.0156 3.80306 15.7168 5.48656 15.7168 7.57818C15.7168 9.6698 14.041 11.3533 11.959 11.3533C9.90234 11.3533 8.20117 9.6698 8.20117 7.57818C8.20117 5.48656 9.90234 3.80306 11.959 3.80306Z" fill="#FCB03C"></path> <path d="M42.3262 17.6533C40.5742 17.1177 37.0957 15.9954 37.0957 15.9954C36.6387 15.8423 36.1562 15.9698 35.8008 16.2759L32.5 19.3879L29.1992 16.2759C28.8437 15.9443 28.3613 15.8423 27.9043 15.9954C27.9043 15.9954 24.4258 17.1177 22.6738 17.6533C21.5566 17.9849 20.9219 18.8522 20.9219 20L21.7852 35.8912L21.8105 36.1463C21.9629 38.442 22.293 39.3092 24.1973 40.0234L25.1113 54.0526C25.2383 55.9912 26.8633 57.5216 28.793 57.5216H36.1816C38.1113 57.5216 39.7363 55.9912 39.8633 54.0526L40.7773 40.0234C42.6816 39.2837 43.0117 38.4165 43.1641 36.1463L44.0527 20.2296V20C44.0781 18.8267 43.4434 17.9849 42.3262 17.6533ZM40.5996 35.6872L40.5742 35.9422C40.5488 36.3504 40.498 37.1666 40.3965 37.3196C40.2695 37.4727 39.4316 37.7278 39.1523 37.8043C38.6445 37.9573 38.2637 38.4165 38.2383 38.9776L37.2734 53.874C37.248 54.4607 36.7656 54.8943 36.1816 54.8943H28.793C28.209 54.8943 27.752 54.4352 27.7012 53.874L26.7363 38.9776C26.7109 38.442 26.3301 37.9828 25.8223 37.8043C25.543 37.7278 24.7305 37.4727 24.6035 37.3196C24.502 37.1666 24.4512 36.3249 24.4258 35.9422L23.5371 20.1531V20.0766C24.8066 19.6939 26.8887 19.0308 27.9805 18.6736L31.6113 22.0917C32.1191 22.5508 32.8809 22.5508 33.3887 22.0917L37.0195 18.6992C38.1113 19.0563 40.1934 19.7195 41.4629 20.1021L40.5996 35.6872Z" fill="white"></path> <path d="M62.8677 17.6533C61.1157 17.1177 57.6372 15.9954 57.6372 15.9954C57.1802 15.8423 56.6978 15.9698 56.3423 16.2759L53.0415 19.3879L49.7407 16.2759C49.3853 15.9443 48.9028 15.8423 48.4458 15.9954C48.4458 15.9954 47.5571 16.2759 46.4653 16.633C45.7798 16.8626 45.3989 17.5768 45.6274 18.2655C45.856 18.9542 46.5669 19.3368 47.2524 19.1073C47.7349 18.9542 48.1665 18.8012 48.522 18.6992L52.1528 22.1172C52.6606 22.5763 53.4224 22.5763 53.9302 22.1172L57.561 18.6992C58.6528 19.0563 60.7095 19.6939 62.0044 20.1021L61.1411 35.6872L61.1157 35.9422C61.0903 36.3504 61.0396 37.1666 60.938 37.3196C60.811 37.4727 59.9731 37.7278 59.6939 37.8043C59.186 37.9573 58.8052 38.4165 58.7798 38.9776L57.8149 53.874C57.7642 54.4607 57.2817 54.8943 56.7231 54.8943H49.3345C48.7759 54.8943 48.2935 54.4352 48.2427 53.874L47.2524 38.9776C47.2271 38.442 46.7954 37.9828 46.2876 37.8043C45.6021 37.5747 44.9165 37.9573 44.688 38.646C44.6118 38.9011 44.6118 39.1817 44.688 39.4113L45.6528 54.0526C45.7798 55.9912 47.3794 57.5216 49.3345 57.5216H56.7231C58.6528 57.5216 60.2778 55.9912 60.4048 54.0526L61.3188 40.0234C63.2231 39.2837 63.5532 38.442 63.7056 36.1718C63.7056 36.0698 63.731 35.8402 63.731 35.8402L64.5942 20.2041V19.9745C64.5942 18.8522 63.9595 17.9849 62.8677 17.6533Z" fill="white"></path> <path d="M53.041 13.9296C56.5449 13.9296 59.3887 11.0727 59.3887 7.55267C59.3887 4.03263 56.5449 1.17578 53.041 1.17578C49.5371 1.17578 46.6934 4.03263 46.6934 7.55267C46.6934 11.0727 49.5371 13.9296 53.041 13.9296ZM53.041 3.80306C55.0977 3.80306 56.7988 5.48656 56.7988 7.57818C56.7988 9.6698 55.123 11.3533 53.041 11.3533C50.9844 11.3533 49.2832 9.6698 49.2832 7.57818C49.2832 5.48656 50.959 3.80306 53.041 3.80306Z" fill="#FCB03C"></path> </svg> 