<?xml version="1.0" encoding="UTF-8"?> <svg xmlns="http://www.w3.org/2000/svg" width="186" height="35" viewBox="0 0 186 35" fill="none"> <path d="M10.7282 17.308L6.20319 14.7981L0 18.5167V26.5944H27.4481V19.4955L16.8738 13.6211L10.7282 17.308Z" fill="#FAAF40"></path> <path d="M13.4586 0L0 8.07073V14.9581L6.20319 11.2395L10.7282 13.7526L16.8738 10.0656L27.4481 15.94V7.76982L13.4586 0Z" fill="#A6A8AB"></path> <path d="M40.6767 26.3345H38.749V10.4901H33.8242V8.62891H45.6072V10.4901H40.6767V26.3345Z" fill="#404041"></path> <path d="M59.0123 26.3345H48.0312V8.62891H58.897V10.4901H49.9596V16.4823H58.0215V18.3436H49.9596V24.4733H59.0123V26.3345Z" fill="#404041"></path> <path d="M74.5173 26.3358H72.2659L67.4088 18.8529L62.5962 26.3358H60.3447L66.2704 17.2768L60.5943 8.63086H62.8489L67.4088 15.6975L72.0137 8.63086H74.243L68.589 17.2768L74.5173 26.3358ZM72.7745 25.3951H72.7815L72.0555 24.2858L72.7745 25.3951Z" fill="#404041"></path> <path d="M88.9964 26.3345H87.0459V18.3436H78.6559V26.3345H76.7275V8.62891H78.6559V16.5045H87.0459V8.62891H88.9964V26.3345Z" fill="#404041"></path> <path d="M99.6031 26.5874C97.4093 26.5874 95.5899 25.7176 94.1962 23.9977C92.8272 22.3062 92.1367 20.1441 92.1367 17.5734V17.4138C92.1367 14.843 92.8272 12.6778 94.1962 10.98C95.5899 9.25307 97.4163 8.37695 99.6285 8.37695C101.825 8.37695 103.645 9.2499 105.036 10.9673C106.404 12.6587 107.102 14.8202 107.102 17.3916V17.5512C107.102 20.1226 106.407 22.2873 105.039 23.985C103.645 25.7113 101.819 26.5874 99.6031 26.5874ZM99.6031 10.2128C97.9947 10.2128 96.7061 10.8653 95.6697 12.2077C94.6213 13.5672 94.0873 15.3125 94.0873 17.3916V17.5512C94.0873 19.6171 94.6276 21.3598 95.6925 22.7351C96.7441 24.0908 98.0295 24.7528 99.6285 24.7528C101.225 24.7528 102.51 24.1009 103.552 22.7579C104.61 21.3984 105.145 19.6563 105.145 17.5747V17.415C105.145 15.3492 104.607 13.6065 103.54 12.2318C102.487 10.8748 101.201 10.2128 99.6031 10.2128Z" fill="#404041"></path> <path d="M123.914 26.3358H121.849L116.345 11.7452L110.845 26.3358H108.827L115.583 8.51562H117.154L123.914 26.3358Z" fill="#404041"></path> <path d="M139.065 26.3345H137.137V12.2747L127.863 26.3345H126.287V8.62891H128.219V22.4556L137.329 8.62891H139.065V26.3345Z" fill="#404041"></path> <path d="M158.203 29.5844H156.319V26.3358H143.327V29.5844H141.418V24.4746H143.014L148.977 8.51562H150.666L156.633 24.4746H158.203V29.5844ZM145.051 24.4746H154.548L149.809 11.6071L145.051 24.4746Z" fill="#404041"></path> <path d="M171.559 26.3345H160.582V8.62891H171.448V10.4901H162.51V16.4823H170.572V18.3436H162.51V24.4733H171.559V26.3345Z" fill="#404041"></path> <path d="M176.421 26.3345H174.492V8.62891H179.682C181.584 8.62891 183.129 9.1338 184.264 10.1252C185.418 11.1388 186 12.5141 186 14.2119C186 16.0376 185.383 17.4636 184.168 18.4969C182.972 19.5105 181.399 20.0255 179.496 20.0255H176.42V26.3345H176.421ZM176.421 18.1871H179.545C180.958 18.1871 182.084 17.8292 182.899 17.1253C183.704 16.431 184.095 15.5074 184.095 14.305C184.095 13.0418 183.715 12.1372 182.932 11.4879C182.132 10.8265 181.022 10.4901 179.638 10.4901H176.421V18.1871H176.421Z" fill="#404041"></path> <path d="M13.9895 34.44L27.4481 26.3699V19.4819L21.2481 23.2005L16.7236 20.6875L10.5743 24.3744L0 18.5V26.6702L13.9895 34.44Z" fill="#404041"></path> </svg> 