<?xml version="1.0" encoding="UTF-8"?> <svg xmlns="http://www.w3.org/2000/svg" width="22" height="21" viewBox="0 0 22 21" fill="none"> <path d="M21.3726 14.8393L16.56 12.8706C16.3544 12.7869 16.1259 12.7693 15.9089 12.8203C15.692 12.8714 15.4982 12.9883 15.3569 13.1536L13.2256 15.6392C9.88072 14.1338 7.18888 11.5643 5.61182 8.37148L8.21577 6.33706C8.38923 6.2024 8.512 6.01745 8.56549 5.81023C8.61899 5.60301 8.6003 5.38479 8.51226 5.18861L6.44972 0.594775C6.35309 0.383299 6.18218 0.210635 5.96647 0.106557C5.75075 0.0024795 5.50375 -0.0264886 5.26806 0.0246481L0.799233 1.00904C0.571997 1.05913 0.369256 1.18126 0.224101 1.3555C0.0789458 1.52974 -5.23459e-05 1.7458 2.60232e-08 1.96841C2.60232e-08 12.4891 8.93336 21 19.9378 21C20.1711 21.0001 20.3976 20.9248 20.5802 20.7862C20.7628 20.6476 20.8908 20.4541 20.9433 20.2371L21.9746 15.9714C22.0278 15.7453 21.9968 15.5086 21.887 15.302C21.7771 15.0954 21.5952 14.9318 21.3726 14.8393Z" fill="#FAAF40"></path> </svg> 