<?xml version="1.0" encoding="UTF-8"?> <svg xmlns="http://www.w3.org/2000/svg" width="20" height="19" viewBox="0 0 20 19" fill="none"> <path d="M19.4296 13.4261L15.0546 11.6448C14.8677 11.5691 14.6599 11.5532 14.4627 11.5994C14.2654 11.6455 14.0893 11.7513 13.9608 11.9009L12.0233 14.1497C8.98248 12.7877 6.53535 10.4629 5.10165 7.57419L7.46888 5.73353C7.62657 5.61169 7.73818 5.44436 7.78681 5.25688C7.83545 5.06939 7.81846 4.87195 7.73842 4.69445L5.86338 0.53813C5.77554 0.346794 5.62016 0.190574 5.42406 0.0964089C5.22796 0.00224336 5.00341 -0.0239658 4.78915 0.0223006L0.726575 0.912941C0.519997 0.95826 0.335687 1.06876 0.203728 1.2264C0.0717689 1.38405 -4.75872e-05 1.57953 2.36575e-08 1.78095C2.36575e-08 11.2997 8.12123 19 18.1253 19C18.3374 19.0001 18.5433 18.9319 18.7093 18.8066C18.8753 18.6812 18.9917 18.5061 19.0394 18.3098L19.9769 14.4503C20.0253 14.2458 19.9971 14.0316 19.8972 13.8447C19.7973 13.6577 19.632 13.5097 19.4296 13.4261Z" fill="#FAAF40"></path> </svg> 