<?xml version="1.0" encoding="UTF-8"?> <svg xmlns="http://www.w3.org/2000/svg" width="27" height="27" viewBox="0 0 27 27" fill="none"> <path fill-rule="evenodd" clip-rule="evenodd" d="M13.5 0C6.075 0 0 6.075 0 13.5C0 20.925 6.075 27 13.5 27C20.925 27 27 20.925 27 13.5C27 6.075 20.925 0 13.5 0ZM13.5 24.3C7.56 24.3 2.7 19.44 2.7 13.5C2.7 7.56 7.56 2.7 13.5 2.7C19.44 2.7 24.3 7.56 24.3 13.5C24.3 19.44 19.44 24.3 13.5 24.3ZM14.175 6.75H12.15V14.85L19.17 19.17L20.25 17.415L14.175 13.77V6.75Z" fill="#FCB03C"></path> </svg> 