<?xml version="1.0" encoding="UTF-8"?> <svg xmlns="http://www.w3.org/2000/svg" width="237" height="237" viewBox="0 0 237 237" fill="none"> <rect width="237" height="237" fill="white"></rect> <path d="M112.275 138.261H112.277H143.163H148V135.109H144.74V112.325C144.74 111.715 144.387 111.158 143.834 110.898C143.283 110.639 142.628 110.721 142.157 111.11L129.345 121.72L129.294 112.316C129.29 111.721 128.954 111.179 128.421 110.914C127.889 110.649 127.253 110.705 126.778 111.06L113.854 120.69V103.662C113.854 102.792 113.148 102.086 112.277 102.086H104.537C103.739 102.086 103.065 102.685 102.972 103.479L99.2651 135.109H96.0449V138.261H100.668H112.275ZM126.16 115.452L126.211 125.064C126.215 125.673 126.57 126.226 127.12 126.484C127.674 126.741 128.324 126.658 128.793 126.271L141.588 115.677V135.109H113.855V124.622L126.16 115.452ZM105.941 105.238H110.702V123.817C110.702 123.823 110.7 123.828 110.7 123.833V135.11H102.441L105.941 105.238Z" fill="#3A3A3C"></path> <path d="M107.374 100.86C107.544 100.919 107.716 100.946 107.884 100.946C108.54 100.946 109.152 100.534 109.376 99.8802C110.756 95.8516 114.711 95.2498 117.677 95.9545C122.842 97.1886 127.067 97.6012 130.565 90.9078C130.968 90.1364 130.668 89.1842 129.897 88.7808C129.129 88.3784 128.175 88.6761 127.771 89.4475C125.48 93.8322 123.62 94.1335 118.408 92.8874C113.818 91.7923 108.325 93.2156 106.393 98.8566C106.112 99.6809 106.55 100.577 107.374 100.86Z" fill="#FCB03C"></path> </svg> 