<?xml version="1.0" encoding="UTF-8"?> <svg xmlns="http://www.w3.org/2000/svg" width="237" height="237" viewBox="0 0 237 237" fill="none"> <rect width="237" height="237" fill="white"></rect> <path d="M137.697 128.17V123.003H130.246L123.804 110.085C124.913 109.119 125.802 107.928 126.414 106.591C127.025 105.255 127.344 103.803 127.349 102.334C127.349 99.5934 126.258 96.9649 124.318 95.0268C122.377 93.0888 119.745 92 117 92C114.255 92 111.623 93.0888 109.682 95.0268C107.742 96.9649 106.651 99.5934 106.651 102.334C106.656 103.803 106.975 105.255 107.586 106.591C108.198 107.928 109.087 109.119 110.196 110.085L103.754 123.003H96.3026V128.17H101.166L94 142.508L98.631 144.808L106.962 128.17H127.038L135.369 144.834L140 142.534L132.834 128.17H137.697ZM109.549 123.003L114.723 112.436C116.147 112.743 117.62 112.743 119.044 112.436L124.218 123.003H109.549Z" fill="#3A3A3C"></path> <circle cx="117" cy="102.347" r="10.347" fill="#FCB03C"></circle> </svg> 