<?xml version="1.0" encoding="UTF-8"?> <svg xmlns="http://www.w3.org/2000/svg" width="237" height="237" viewBox="0 0 237 237" fill="none"> <rect width="237" height="237" fill="white"></rect> <path d="M140.125 131.25H132.625V125.625H142L130.75 95.625L123.062 116.25L123.625 117.562L112 90L97 125.625H110.125V131.25H98.875C97.75 131.25 97 132 97 133.125V135H142V133.125C142 132 141.25 131.25 140.125 131.25ZM117.062 106.875H106.938L108.438 103.125H115.375L117.062 106.875ZM117.812 108.75L119.312 112.5H104.688L106.188 108.75H117.812ZM120.25 114.375L121.75 118.125H102.25L103.75 114.375H120.25ZM135.062 112.5H126.625L128.125 108.75H133.75L135.062 112.5ZM135.625 114.375L137.125 118.125H124.375L125.875 114.375H135.625ZM132.812 106.875H128.5L130.75 101.062L132.812 106.875ZM114.625 101.25H109.375L112 95.0625L114.625 101.25ZM99.8125 123.75L101.312 120H122.312L123.812 123.75H113.875H110.125H99.8125ZM113.875 131.25V125.625H127L124.562 120H137.688L139.188 123.75H132.625H128.875H126.25L127 125.625H128.875V131.25H113.875Z" fill="#3A3A3C"></path> <rect x="97" y="131" width="45" height="5" fill="#FCB03C"></rect> </svg> 