<?xml version="1.0" encoding="UTF-8"?> <svg xmlns="http://www.w3.org/2000/svg" width="237" height="237" viewBox="0 0 237 237" fill="none"> <rect width="237" height="237" fill="white"></rect> <path d="M143.979 130.16C143.51 125.694 141.922 121.428 139.371 117.775C136.819 114.122 133.39 111.207 129.415 109.311C128.709 106.908 127.266 104.802 125.3 103.305C123.334 101.808 120.949 101 118.5 101C116.051 101 113.666 101.808 111.7 103.305C109.734 104.802 108.291 106.908 107.584 109.311C103.61 111.207 100.181 114.122 97.6291 117.775C95.0776 121.428 93.4902 125.694 93.021 130.16H90V136H147V130.16H143.979ZM118.5 106.8C119.627 106.8 120.729 107.142 121.667 107.784C122.604 108.426 123.335 109.338 123.766 110.405C124.198 111.472 124.31 112.646 124.09 113.779C123.871 114.912 123.328 115.953 122.531 116.769C121.733 117.586 120.718 118.142 119.612 118.368C118.506 118.593 117.36 118.477 116.319 118.035C115.277 117.593 114.387 116.845 113.761 115.884C113.134 114.924 112.8 113.795 112.8 112.64C112.8 111.091 113.401 109.606 114.469 108.51C115.538 107.415 116.988 106.8 118.5 106.8ZM115.65 130.16V123.94C117.518 124.447 119.482 124.447 121.35 123.94V130.16H115.65Z" fill="#3A3A3C"></path> <circle cx="118.5" cy="112.5" r="6.5" fill="#FCB03C"></circle> </svg> 